HIERARCHY
ROOT reference
{
  OFFSET 0 0 0
  CHANNELS 6 Xposition Yposition Zposition Zrotation Xrotation Yrotation
  JOINT Hips
  {
    OFFSET 368.823 89.7904 194.012
    CHANNELS 3 Zrotation Xrotation Yrotation
    JOINT RightUpLeg
    {
      OFFSET -9.24587 -1.53924 -0.0496539
      CHANNELS 3 Zrotation Xrotation Yrotation
      JOINT RightLeg
      {
        OFFSET 0.0288962 -41.8853 0.065208
        CHANNELS 3 Zrotation Xrotation Yrotation
        JOINT RightFoot
        {
          OFFSET -0.153961 -42.496 -0.469978
          CHANNELS 3 Zrotation Xrotation Yrotation
          End Site
          {
            OFFSET 0 -7.69 17.5
          }
        }
      }
    }
    JOINT LeftUpLeg
    {
      OFFSET 9.30368 -1.65799 0.0114032
      CHANNELS 3 Zrotation Xrotation Yrotation
      JOINT LeftLeg
      {
        OFFSET 0.0812002 -41.8405 -0.136291
        CHANNELS 3 Zrotation Xrotation Yrotation
        JOINT LeftFoot
        {
          OFFSET 0.408244 -41.1613 0.400562
          CHANNELS 3 Zrotation Xrotation Yrotation
          End Site
          {
            OFFSET 0 -7.69 17.5
          }
        }
      }
    }
    JOINT Spine
    {
      OFFSET 0.0091145 14.2923 0.0603898
      CHANNELS 3 Zrotation Xrotation Yrotation
      JOINT Spine1
      {
        OFFSET 0.0313032 9.72692 0.0269052
        CHANNELS 3 Zrotation Xrotation Yrotation
        JOINT Spine2
        {
          OFFSET 0.0416827 10.1254 -0.000588186
          CHANNELS 3 Zrotation Xrotation Yrotation
          JOINT Spine3
          {
            OFFSET 0.0353017 9.71596 0.00525809
            CHANNELS 3 Zrotation Xrotation Yrotation
            JOINT Neck
            {
              OFFSET 0.0870676 10.3793 0.0454457
              CHANNELS 3 Zrotation Xrotation Yrotation
              JOINT Head
              {
                OFFSET 0.0878806 9.48152 0.0233162
                CHANNELS 3 Zrotation Xrotation Yrotation
                End Site
                {
                  OFFSET 0 15.95 0
                }
              }
            }
            JOINT RightShoulder
            {
              OFFSET -3.16008 6.92912 0.0289115
              CHANNELS 3 Zrotation Xrotation Yrotation
              JOINT RightArm
              {
                OFFSET -12.7589 0.0216905 0.0632467
                CHANNELS 3 Zrotation Xrotation Yrotation
                JOINT RightForeArm
                {
                  OFFSET -26.506 -0.0577999 0.0567862
                  CHANNELS 3 Zrotation Xrotation Yrotation
                  JOINT RightHand
                  {
                    OFFSET -25.9836 -0.0526551 -0.00138994
                    CHANNELS 3 Zrotation Xrotation Yrotation
                    JOINT RightHandThumb1
                    {
                      OFFSET -2.48905 0.190105 3.12053
                      CHANNELS 3 Zrotation Xrotation Yrotation
                      JOINT RightHandThumb2
                      {
                        OFFSET -3.68274 0 0
                        CHANNELS 3 Zrotation Xrotation Yrotation
                        JOINT RightHandThumb3
                        {
                          OFFSET -2.55832 0 0
                          CHANNELS 3 Zrotation Xrotation Yrotation
                          End Site
                          {
                            OFFSET -2.194 0 0
                          }
                        }
                      }
                    }
                    JOINT RightInHandIndex
                    {
                      OFFSET -3.22368 0.508421 1.97842
                      CHANNELS 3 Zrotation Xrotation Yrotation
                      JOINT RightHandIndex1
                      {
                        OFFSET -5.21684 -0.091368 0.999158
                        CHANNELS 3 Zrotation Xrotation Yrotation
                        JOINT RightHandIndex2
                        {
                          OFFSET -3.61937 0 0
                          CHANNELS 3 Zrotation Xrotation Yrotation
                          JOINT RightHandIndex3
                          {
                            OFFSET -2.0521 0 0
                            CHANNELS 3 Zrotation Xrotation Yrotation
                            End Site
                            {
                              OFFSET -1.805 0 0
                            }
                          }
                        }
                      }
                    }
                    JOINT RightInHandMiddle
                    {
                      OFFSET -3.38211 0.517263 0.756737
                      CHANNELS 3 Zrotation Xrotation Yrotation
                      JOINT RightHandMiddle1
                      {
                        OFFSET -5.17411 -0.084 0.313895
                        CHANNELS 3 Zrotation Xrotation Yrotation
                        JOINT RightHandMiddle2
                        {
                          OFFSET -3.94947 0 0
                          CHANNELS 3 Zrotation Xrotation Yrotation
                          JOINT RightHandMiddle3
                          {
                            OFFSET -2.47579 0 0
                            CHANNELS 3 Zrotation Xrotation Yrotation
                            End Site
                            {
                              OFFSET -1.975 0 0
                            }
                          }
                        }
                      }
                    }
                    JOINT RightInHandRing
                    {
                      OFFSET -3.36516 0.537895 -0.128947
                      CHANNELS 3 Zrotation Xrotation Yrotation
                      JOINT RightHandRing1
                      {
                        OFFSET -4.63474 -0.022105 -0.478947
                        CHANNELS 3 Zrotation Xrotation Yrotation
                        JOINT RightHandRing2
                        {
                          OFFSET -3.44238 0 0
                          CHANNELS 3 Zrotation Xrotation Yrotation
                          JOINT RightHandRing3
                          {
                            OFFSET -2.3881 0 0
                            CHANNELS 3 Zrotation Xrotation Yrotation
                            End Site
                            {
                              OFFSET -1.857 0 0
                            }
                          }
                        }
                      }
                    }
                    JOINT RightInHandPinky
                    {
                      OFFSET -3.16105 0.469368 -1.20179
                      CHANNELS 3 Zrotation Xrotation Yrotation
                      JOINT RightHandPinky1
                      {
                        OFFSET -4.14105 -0.022105 -1.09053
                        CHANNELS 3 Zrotation Xrotation Yrotation
                        JOINT RightHandPinky2
                        {
                          OFFSET -2.75653 0 0
                          CHANNELS 3 Zrotation Xrotation Yrotation
                          JOINT RightHandPinky3
                          {
                            OFFSET -1.74189 0 0
                            CHANNELS 3 Zrotation Xrotation Yrotation
                            End Site
                            {
                              OFFSET -1.645 0 0
                            }
                          }
                        }
                      }
                    }
                  }
                }
              }
            }
            JOINT LeftShoulder
            {
              OFFSET 3.24363 6.91883 -0.0263005
              CHANNELS 3 Zrotation Xrotation Yrotation
              JOINT LeftArm
              {
                OFFSET 12.8387 -0.0254922 -0.065819
                CHANNELS 3 Zrotation Xrotation Yrotation
                JOINT LeftForeArm
                {
                  OFFSET 26.503 -0.0679028 -0.0690065
                  CHANNELS 3 Zrotation Xrotation Yrotation
                  JOINT LeftHand
                  {
                    OFFSET 25.9897 -0.0384179 -0.0536179
                    CHANNELS 3 Zrotation Xrotation Yrotation
                    JOINT LeftHandThumb1
                    {
                      OFFSET 2.48905 0.190105 3.12053
                      CHANNELS 3 Zrotation Xrotation Yrotation
                      JOINT LeftHandThumb2
                      {
                        OFFSET 3.68274 0 0
                        CHANNELS 3 Zrotation Xrotation Yrotation
                        JOINT LeftHandThumb3
                        {
                          OFFSET 2.55832 0 0
                          CHANNELS 3 Zrotation Xrotation Yrotation
                          End Site
                          {
                            OFFSET 2.194 0 0
                          }
                        }
                      }
                    }
                    JOINT LeftInHandIndex
                    {
                      OFFSET 3.22368 0.508421 1.97842
                      CHANNELS 3 Zrotation Xrotation Yrotation
                      JOINT LeftHandIndex1
                      {
                        OFFSET 5.21684 -0.091368 0.999158
                        CHANNELS 3 Zrotation Xrotation Yrotation
                        JOINT LeftHandIndex2
                        {
                          OFFSET 3.61937 0 0
                          CHANNELS 3 Zrotation Xrotation Yrotation
                          JOINT LeftHandIndex3
                          {
                            OFFSET 2.0521 0 0
                            CHANNELS 3 Zrotation Xrotation Yrotation
                            End Site
                            {
                              OFFSET 1.805 0 0
                            }
                          }
                        }
                      }
                    }
                    JOINT LeftInHandMiddle
                    {
                      OFFSET 3.38211 0.517263 0.756737
                      CHANNELS 3 Zrotation Xrotation Yrotation
                      JOINT LeftHandMiddle1
                      {
                        OFFSET 5.17411 -0.084 0.313895
                        CHANNELS 3 Zrotation Xrotation Yrotation
                        JOINT LeftHandMiddle2
                        {
                          OFFSET 3.94947 0 0
                          CHANNELS 3 Zrotation Xrotation Yrotation
                          JOINT LeftHandMiddle3
                          {
                            OFFSET 2.47579 0 0
                            CHANNELS 3 Zrotation Xrotation Yrotation
                            End Site
                            {
                              OFFSET 1.975 0 0
                            }
                          }
                        }
                      }
                    }
                    JOINT LeftInHandRing
                    {
                      OFFSET 3.36516 0.537895 -0.128947
                      CHANNELS 3 Zrotation Xrotation Yrotation
                      JOINT LeftHandRing1
                      {
                        OFFSET 4.63474 -0.022105 -0.478947
                        CHANNELS 3 Zrotation Xrotation Yrotation
                        JOINT LeftHandRing2
                        {
                          OFFSET 3.44238 0 0
                          CHANNELS 3 Zrotation Xrotation Yrotation
                          JOINT LeftHandRing3
                          {
                            OFFSET 2.3881 0 0
                            CHANNELS 3 Zrotation Xrotation Yrotation
                            End Site
                            {
                              OFFSET 1.857 0 0
                            }
                          }
                        }
                      }
                    }
                    JOINT LeftInHandPinky
                    {
                      OFFSET 3.16105 0.469368 -1.20179
                      CHANNELS 3 Zrotation Xrotation Yrotation
                      JOINT LeftHandPinky1
                      {
                        OFFSET 4.14105 -0.022105 -1.09053
                        CHANNELS 3 Zrotation Xrotation Yrotation
                        JOINT LeftHandPinky2
                        {
                          OFFSET 2.75653 0 0
                          CHANNELS 3 Zrotation Xrotation Yrotation
                          JOINT LeftHandPinky3
                          {
                            OFFSET 1.74189 0 0
                            CHANNELS 3 Zrotation Xrotation Yrotation
                            End Site
                            {
                              OFFSET 1.645 0 0
                            }
                          }
                        }
                      }
                    }
                  }
                }
              }
            }
          }
        }
      }
    }
  }
}
MOTION
Frames: 2
Frame Time: 0.00833333
6.000000000000000000e+02 0.000000000000000000e+00 0.000000000000000000e+00 0.000000000000000000e+00 0.000000000000000000e+00 0.000000000000000000e+00 -6.837723896784729527e-02 -1.557721001780749959e-01 -3.517151469428278499e-02 3.252123564784288601e-02 1.813483892624569854e-02 -4.841365485497435561e-02 -2.008111557473494374e-03 -2.168411690972504163e-02 1.864528338653355932e-01 -4.375319983216286596e-02 5.506050240677417412e-02 2.040404409861552582e-01 1.321138857072277906e-01 1.505094950736672599e-01 4.872172721113088856e-01 -4.670536149356377398e-02 -9.856782367822192192e-02 -8.950605832545256713e-02 -1.996070806482496546e-02 -8.129635547720386046e-02 -1.075230138928571083e-01 -9.893859995000657895e-03 -1.945384565553916721e-03 4.290472315314464158e-02 -6.569063281033909671e-03 -1.056983767491019577e-02 7.462941731825558332e-03 -1.187347625046403926e-02 -1.741992873781709680e-02 9.839808326408034517e-03 -1.670438502388167309e-02 -4.096557602932144118e-03 2.617339443979081401e-02 8.701206506571797922e-03 8.817074138052986843e-02 -4.514721467905569163e-01 -2.931481394147434361e-01 -3.393015319430416760e-02 7.374849722498775240e-01 -2.109083801940265512e-01 3.193177845289424388e-02 5.122015043486809471e-01 1.345505481928342684e-01 -2.452880507130246746e-01 4.520870664356938518e-01 -7.081884104571083416e-01 3.099661494395387629e-01 -1.258716432701900700e+00 1.378312910566991123e-01 -5.246624396561274661e-01 4.952259779203317391e-01 0.000000000000000000e+00 0.000000000000000000e+00 0.000000000000000000e+00 -1.357104244813787735e-15 -5.796021727054960910e-15 0.000000000000000000e+00 -6.356040025324461479e-15 -1.833054918854867795e-15 0.000000000000000000e+00 1.683807058397898224e-15 6.055091404830274299e-16 8.619014821988449464e-16 0.000000000000000000e+00 0.000000000000000000e+00 0.000000000000000000e+00 0.000000000000000000e+00 1.515935304835325675e-15 -5.889971940598173684e-15 0.000000000000000000e+00 6.207779897590533314e-15 2.099010109538590664e-14 1.683807058397898224e-15 6.055091404830274299e-16 8.619014821988449464e-16 0.000000000000000000e+00 -2.706260929270687690e-16 -1.291194211518475413e-15 0.000000000000000000e+00 -1.425569231273460871e-15 -9.428299533290945344e-15 0.000000000000000000e+00 3.813082660778151666e-15 1.844129215199585669e-14 1.683807058397898224e-15 6.055091404830274299e-16 8.619014821988449464e-16 0.000000000000000000e+00 0.000000000000000000e+00 0.000000000000000000e+00 0.000000000000000000e+00 -3.245718141553978234e-16 -8.724630832726430080e-15 0.000000000000000000e+00 1.093074205927565591e-15 1.278964662353673686e-14 1.683807058397898224e-15 6.055091404830274299e-16 8.619014821988449464e-16 0.000000000000000000e+00 0.000000000000000000e+00 0.000000000000000000e+00 0.000000000000000000e+00 -5.963533722184662925e-15 -2.793885755532855762e-14 0.000000000000000000e+00 2.387340761349685905e-16 4.647844153023424839e-15 -6.100626806915715288e-03 1.998116932254957179e-01 1.973673851272244317e-01 7.241658521193612696e-02 -1.764471656477774875e-01 1.340561384751837726e-01 -2.848936300117938525e-01 -7.239786095783027342e-01 -5.210361220924056291e-02 -6.356173867086982732e-01 3.890805007184209852e-01 -4.202438983410370921e-01 0.000000000000000000e+00 0.000000000000000000e+00 0.000000000000000000e+00 -5.497472297371025729e-15 5.665915246454998368e-16 0.000000000000000000e+00 -1.101740669065484319e-15 2.358345126200400413e-15 0.000000000000000000e+00 9.688291484946093512e-17 -8.491932071973689103e-16 3.429338124340779381e-16 0.000000000000000000e+00 0.000000000000000000e+00 0.000000000000000000e+00 0.000000000000000000e+00 7.984641407230739543e-16 -2.506723923143708842e-15 0.000000000000000000e+00 1.354565237518193607e-15 -1.327849159318749016e-14 9.688291484946093512e-17 -8.491932071973689103e-16 3.429338124340779381e-16 0.000000000000000000e+00 2.448205177090738251e-15 -1.975149987981774473e-15 0.000000000000000000e+00 3.328775760670850470e-15 -3.596232964499770602e-15 0.000000000000000000e+00 4.406749199727332017e-15 -6.228150483987989232e-15 9.688291484946093512e-17 -8.491932071973689103e-16 3.429338124340779381e-16 0.000000000000000000e+00 0.000000000000000000e+00 0.000000000000000000e+00 0.000000000000000000e+00 -2.632455591052315588e-16 -1.005175153697140739e-14 0.000000000000000000e+00 9.469959123340589195e-16 -3.811333178823619623e-15 9.688291484946093512e-17 -8.491932071973689103e-16 3.429338124340779381e-16 0.000000000000000000e+00 0.000000000000000000e+00 0.000000000000000000e+00 0.000000000000000000e+00 -3.128124219054502543e-15 -3.167730729138568791e-15 0.000000000000000000e+00 1.875901343125689097e-15 -9.408193631893452027e-15
6.000000000000000000e+02 0.000000000000000000e+00 0.000000000000000000e+00 0.000000000000000000e+00 0.000000000000000000e+00 0.000000000000000000e+00 -4.474498372646225353e-02 -1.127925084740179773e-01 3.476972840805565845e-03 3.528006060407004249e-03 -4.707105584229239262e-03 -6.235955100790251115e-02 1.163958219459773971e-02 3.852123771084834530e-02 2.114958666866991743e-01 -2.428650111786688839e-02 -2.667839078019629273e-02 6.937032054682500115e-02 1.234316744761414369e-01 1.054046840723601997e-01 4.045814483820056595e-01 -3.709703770641037401e-02 -9.513501341299177017e-02 -1.014931636056511655e-01 -2.729587183937811842e-02 -4.995396769392788233e-02 -9.258306617059679222e-02 -1.797317034261066912e-02 6.212985043968246440e-03 2.793143146129737492e-02 -7.477761658583862228e-03 -5.506415910974189927e-03 3.765463548107085470e-03 -1.323966703923522628e-02 -9.034363066830145700e-03 4.721557150313642967e-03 -1.292392046384978517e-02 -1.016173423692580792e-03 2.066867635193041924e-02 8.567264960059255835e-03 7.198944086333290693e-02 -3.502686892090563497e-01 -2.267219495867593138e-01 2.452602523515330386e-03 5.751008351007718122e-01 -1.340325718537801469e-01 -9.636136487228618569e-03 3.392224506406510964e-01 -2.174595778477619520e-02 3.044656567806600100e-02 4.029558055797700655e-01 -6.976043105888731777e-01 1.889344859112107311e-01 -1.160291875893228353e+00 6.025569513958080325e-02 -3.984202493299213166e-01 4.240500402168686511e-01 0.000000000000000000e+00 0.000000000000000000e+00 0.000000000000000000e+00 -1.043471192825790044e-15 -4.895767244549811259e-15 0.000000000000000000e+00 -5.039829892328189361e-15 -1.284422168790559952e-15 0.000000000000000000e+00 1.682654858898071707e-15 4.840422521245563064e-16 2.048581865274158017e-16 0.000000000000000000e+00 0.000000000000000000e+00 0.000000000000000000e+00 0.000000000000000000e+00 1.120189334909195885e-15 -7.637379483944782144e-15 0.000000000000000000e+00 6.172089094463474241e-15 1.958138232413016712e-14 1.682654858898071707e-15 4.840422521245563064e-16 2.048581865274158017e-16 0.000000000000000000e+00 -3.095743825077826248e-16 -1.831860618728869412e-15 0.000000000000000000e+00 -2.402242821487237539e-15 -1.082902840843837515e-14 0.000000000000000000e+00 4.172737214416818548e-15 1.855159777610977973e-14 1.682654858898071707e-15 4.840422521245563064e-16 2.048581865274158017e-16 0.000000000000000000e+00 0.000000000000000000e+00 0.000000000000000000e+00 0.000000000000000000e+00 -1.022917372048681380e-15 -1.018033144583061535e-14 0.000000000000000000e+00 8.855862680313499249e-16 1.220766885122646496e-14 1.682654858898071707e-15 4.840422521245563064e-16 2.048581865274158017e-16 0.000000000000000000e+00 0.000000000000000000e+00 0.000000000000000000e+00 0.000000000000000000e+00 -7.144305885648866765e-15 -3.264897262041590366e-14 0.000000000000000000e+00 6.146774900267059191e-16 5.301646344671311186e-15 4.753102956682249414e-02 1.314066269346569338e-01 1.067779397905428140e-01 -8.770776717693888613e-02 -2.081597475690164512e-01 2.755554275314948676e-01 -3.363949835927866339e-01 -6.737846530463704742e-01 -9.618569398755401345e-02 -6.311612668601668252e-01 3.631227903377866051e-01 -4.067110231035095946e-01 0.000000000000000000e+00 0.000000000000000000e+00 0.000000000000000000e+00 -5.631757124859783478e-15 2.934095987244237907e-16 0.000000000000000000e+00 -1.095206134409776053e-15 1.890852836870103078e-15 0.000000000000000000e+00 7.443057592299369929e-16 -7.267007658982964384e-16 3.578886058191332830e-16 0.000000000000000000e+00 0.000000000000000000e+00 0.000000000000000000e+00 0.000000000000000000e+00 4.777453266150348093e-16 -3.512368530406052924e-15 0.000000000000000000e+00 1.329193617981722792e-15 -1.433036559787985841e-14 7.443057592299369929e-16 -7.267007658982964384e-16 3.578886058191332830e-16 0.000000000000000000e+00 2.974776402017477893e-15 -2.151860127791204257e-15 0.000000000000000000e+00 3.442199370078827240e-15 -4.298953760069455539e-15 0.000000000000000000e+00 4.244497746368004575e-15 -7.370228822943502797e-15 7.443057592299369929e-16 -7.267007658982964384e-16 3.578886058191332830e-16 0.000000000000000000e+00 0.000000000000000000e+00 0.000000000000000000e+00 0.000000000000000000e+00 5.079714734560496991e-16 -1.035694494341884637e-14 0.000000000000000000e+00 1.178794556912101745e-15 -5.335064469545321423e-15 7.443057592299369929e-16 -7.267007658982964384e-16 3.578886058191332830e-16 0.000000000000000000e+00 0.000000000000000000e+00 0.000000000000000000e+00 0.000000000000000000e+00 -3.248933696797505012e-15 -3.894870590099675744e-15 0.000000000000000000e+00 1.915894756442749671e-15 -1.020557143633827534e-14
